name Walk4.mot
datacolumns 19
datarows 10
range 3.16300000 3.17200000
endheader

                time	   L_ground_force_vx	   L_ground_force_vy	   L_ground_force_vz	   L_ground_force_px	   L_ground_force_py	   L_ground_force_pz	   R_ground_force_vx	   R_ground_force_vy	   R_ground_force_vz	   R_ground_force_px	   R_ground_force_py	   R_ground_force_pz	   L_ground_torque_x	   L_ground_torque_y	   L_ground_torque_z	   R_ground_torque_x	   R_ground_torque_y	   R_ground_torque_z	
          3.16300000	          0.34583253	        744.23951557	         59.17421381	         -0.30066360	          0.00000000	         -0.09788728	         -0.00678936	          0.09309986	          0.01759151	          0.00007098	          0.00000000	          0.00006854	          0.00000000	          2.57676893	          0.00000000	          0.00000000	         -0.00001765	          0.00000000	
          3.16400000	          0.78122847	        745.19533058	         59.31366833	         -0.30042059	          0.00000000	         -0.09789249	         -0.00717021	          0.10124677	          0.01867432	          0.00007505	          0.00000000	          0.00007243	          0.00000000	          2.57172234	          0.00000000	          0.00000000	          0.00002090	          0.00000000	
          3.16500000	          1.22087239	        746.15866624	         59.45350929	         -0.30018078	          0.00000000	         -0.09789732	         -0.00755685	          0.10973258	          0.01978062	          0.00007920	          0.00000000	          0.00007638	          0.00000000	          2.56626630	          0.00000000	          0.00000000	          0.00006294	          0.00000000	
          3.16600000	          1.66480542	        747.12944514	         59.59363887	         -0.29994418	          0.00000000	         -0.09790175	         -0.00794821	          0.11855376	          0.02090804	          0.00008340	          0.00000000	          0.00008038	          0.00000000	          2.56039601	          0.00000000	          0.00000000	          0.00010862	          0.00000000	
          3.16700000	          2.11306800	        748.10759175	         59.73396152	         -0.29971079	          0.00000000	         -0.09790578	         -0.00834311	          0.12770503	          0.02205387	          0.00008764	          0.00000000	          0.00008442	          0.00000000	          2.55410672	          0.00000000	          0.00000000	          0.00015810	          0.00000000	
          3.16800000	          2.56570031	        749.09303196	         59.87438361	         -0.29948063	          0.00000000	         -0.09790938	         -0.00874025	          0.13717926	          0.02321509	          0.00009192	          0.00000000	          0.00008849	          0.00000000	          2.54739404	          0.00000000	          0.00000000	          0.00021153	          0.00000000	
          3.16900000	          3.02274297	        750.08569241	         60.01481320	         -0.29925369	          0.00000000	         -0.09791254	         -0.00913820	          0.14696736	          0.02438835	          0.00009622	          0.00000000	          0.00009257	          0.00000000	          2.54025437	          0.00000000	          0.00000000	          0.00026904	          0.00000000	
          3.17000000	          3.48423797	        751.08549993	         60.15515988	         -0.29902996	          0.00000000	         -0.09791524	         -0.00953538	          0.15705805	          0.02556991	          0.00010052	          0.00000000	          0.00009665	          0.00000000	          2.53268523	          0.00000000	          0.00000000	          0.00033079	          0.00000000	
          3.17100000	          3.95022937	        752.09238104	         60.29533473	         -0.29880944	          0.00000000	         -0.09791747	         -0.00993010	          0.16743778	          0.02675567	          0.00010481	          0.00000000	          0.00010071	          0.00000000	          2.52468570	          0.00000000	          0.00000000	          0.00039692	          0.00000000	
          3.17200000	          4.42076377	        753.10626133	         60.43525069	         -0.29859212	          0.00000000	         -0.09791921	         -0.01032048	          0.17809055	          0.02794111	          0.00010906	          0.00000000	          0.00010473	          0.00000000	          2.51625662	          0.00000000	          0.00000000	          0.00046755	          0.00000000	
